<?xml version="1.0" encoding="UTF-8"?>
<svg width="386px" height="160px" viewBox="0 0 386 160" version="1.1" xmlns="http://www.w3.org/2000/svg" xmlns:xlink="http://www.w3.org/1999/xlink">
    <!-- Generator: Sketch 39.1 (31720) - http://www.bohemiancoding.com/sketch -->
    <title>logo-</title>
    <desc>Created with Sketch.</desc>
    <defs></defs>
    <g id="Page-1" stroke="none" stroke-width="1" fill="none" fill-rule="evenodd">
        <g id="logo-" fill="#1D1D1B">
            <g id="logo-marquis" transform="translate(43.000000, 44.000000)">
                <g id="Layer_1">
                    <g id="Group">
                        <polygon id="Shape" points="41.2550676 1.37736486 25.3277027 40.8993243 9.49560811 1.37736486 0.140878378 46.2537162 2.79121622 46.2537162 10.1888514 10.3236486 10.2760135 10.3236486 25.3277027 47.7324324 40.4777027 10.3236486 40.5638514 10.3236486 47.9939189 46.2537162 50.6878378 46.2537162"></polygon>
                        <path d="M25.3277027,48.0273649 L10.2456081,10.5608108 L2.87432432,46.3662162 L0,46.3662162 L0.0314189189,46.2314189 L9.46013514,0.999324324 L25.3277027,40.6003378 L41.2925676,0.999324324 L50.8155405,46.3662162 L47.8996622,46.3662162 L47.8834459,46.277027 L40.5050676,10.5608108 L25.3277027,48.0273649 L25.3277027,48.0273649 Z M10.0935811,10.2202703 L10.3489865,10.2202703 L10.3763514,10.2851351 L25.3277027,47.435473 L40.4016892,10.2202703 L40.6591216,10.2202703 L40.6793919,10.3094595 L48.0810811,46.1442568 L50.5459459,46.1442568 L41.2216216,1.75337838 L25.3277027,41.1922297 L25.2283784,40.9347973 L9.525,1.75337838 L0.274662162,46.1442568 L2.69594595,46.1442568 L10.0935811,10.2202703 L10.0935811,10.2202703 Z" id="Shape"></path>
                        <polygon id="Shape" points="78.8584459 1.37736486 60.6719595 46.2537162 63.4814189 46.2537162 66.3831081 39.1408784 78.8584459 8.35135135 91.722973 40.3925676 94.1138514 46.2537162 96.8695946 46.2537162"></polygon>
                        <path d="M94.0408784,46.3662162 L94.0114865,46.2993243 L91.6165541,40.4320946 L78.8584459,8.6402027 L66.4885135,39.1783784 L63.5533784,46.3662162 L60.5067568,46.3662162 L60.5716216,46.2182432 L78.8584459,1.08851351 L78.9668919,1.33986486 L97.0358108,46.3662162 L94.0408784,46.3662162 L94.0408784,46.3662162 Z M78.8584459,8.05641892 L78.9668919,8.30574324 L91.8263514,40.3540541 L94.1918919,46.1523649 L96.7114865,46.1523649 L78.8584459,1.67432432 L60.8310811,46.1442568 L63.4064189,46.1442568 L66.2787162,39.0972973 L78.8584459,8.05641892 L78.8584459,8.05641892 Z" id="Shape"></path>
                        <g transform="translate(106.418919, 1.013514)">
                            <path d="M116.60777,1.52635135 L119.266216,1.53243243 L119.266216,28.6317568 C119.266216,32.9847973 119.266216,36.8067568 116.425338,40.4756757 C113.503378,43.7756757 108.982095,45.5554054 104.585473,45.5554054 C100.261824,45.5554054 95.7192568,43.7756757 92.8388514,40.4756757 C89.8773649,36.7996622 89.8773649,32.9756757 89.8773649,28.6317568 L89.8773649,1.53243243 L92.6625,1.52635135 L92.6625,27.7570946 C92.6543919,31.7381757 92.6625,35.8449324 94.8679054,38.7060811 C97.085473,41.4334459 101.285473,42.8989865 104.585473,42.8989865 C107.90473,42.8989865 112.153378,41.4344595 114.298986,38.7060811 C116.606757,35.8459459 116.606757,31.7300676 116.606757,27.7570946 L116.606757,1.52635135 L116.60777,1.52635135 Z" id="Shape"></path>
                            <path d="M104.585473,45.6577703 C100.044932,45.6577703 95.5114865,43.6996622 92.7537162,40.5445946 C89.7648649,36.8391892 89.7648649,33.0364865 89.7648649,28.6317568 L89.7648649,1.42094595 L92.7679054,1.42094595 L92.7679054,27.7560811 C92.7597973,31.7067568 92.7537162,35.8013514 94.9530405,38.6371622 C97.272973,41.4891892 101.568243,42.7864865 104.585473,42.7864865 C107.646284,42.7864865 111.962838,41.4902027 114.209797,38.6371622 C116.498311,35.8064189 116.498311,31.7108108 116.498311,27.7560811 L116.498311,1.42094595 L119.378716,1.42905405 L119.378716,28.6317568 C119.378716,33.0425676 119.378716,36.8432432 116.520608,40.5445946 C113.683784,43.7513514 109.222297,45.6577703 104.585473,45.6577703 L104.585473,45.6577703 Z M89.9868243,1.63682432 L89.9868243,28.6317568 C89.9868243,32.9969595 89.9868243,36.7601351 92.9239865,40.4077703 C95.6320946,43.5081081 100.099662,45.4439189 104.585473,45.4439189 C109.156419,45.4439189 113.551014,43.5597973 116.347297,40.3996622 C119.155743,36.7773649 119.155743,32.9959459 119.155743,28.6317568 L119.155743,1.64695946 L116.723311,1.63682432 L116.723311,27.7560811 C116.723311,31.7503378 116.723311,35.8804054 114.381081,38.7699324 C112.096622,41.6837838 107.706081,43.0125 104.584459,43.0125 C101.520608,43.0125 97.1472973,41.6837838 94.7777027,38.7699324 C92.5347973,35.8662162 92.5429054,31.7422297 92.5429054,27.7560811 L92.5510135,1.63682432 L89.9868243,1.63682432 L89.9868243,1.63682432 Z" id="Shape"></path>
                            <rect id="Rectangle-path" x="134.773986" y="1.52635135" width="2.72939189" height="43.4361486"></rect>
                            <path d="M137.611824,45.0658784 L134.6625,45.0658784 L134.6625,1.42094595 L137.619932,1.42094595 L137.611824,45.0658784 L137.611824,45.0658784 Z M134.880405,44.852027 L137.393919,44.852027 L137.393919,1.63682432 L134.880405,1.63682432 L134.880405,44.852027 L134.880405,44.852027 Z" id="Shape"></path>
                            <path d="M173.643243,8.57736486 C171.69527,5.58040541 168.843243,3.52195946 164.83277,3.53006757 C160.115878,3.53006757 156.629392,7.27094595 156.6375,11.8165541 C156.629392,16.3084459 161.009797,18.2199324 164.464865,19.8273649 L172.719932,24.2402027 C176.009797,26.2885135 177.700338,29.0108108 177.700338,32.8347973 C177.700338,40.1787162 171.141892,45.5554054 164.101014,45.5554054 C158.051351,45.5554054 153.388176,41.7983108 151.396622,36.2138514 L153.782432,35.1091216 C155.589527,39.8087838 158.98277,42.8989865 164.327027,42.8929054 C169.959122,42.8989865 175.004392,38.3341216 175.004392,32.6108108 C175.004392,27.7570946 169.958108,25.6368243 166.203041,23.8591216 L158.391892,19.7533784 C155.551014,17.9067568 153.934459,15.3425676 153.934459,11.9047297 C153.934459,5.42533784 158.493243,0.874662162 164.989865,0.874662162 C169.299324,0.874662162 173.45777,3.3 175.560811,6.96790541 L173.643243,8.57736486 L173.643243,8.57736486 Z" id="Shape"></path>
                            <path d="M164.1,45.6577703 C158.266216,45.6577703 153.356757,42.0547297 151.294257,36.2513514 L151.25473,36.1560811 L153.850338,34.9621622 L153.883784,35.0706081 C155.825676,40.1199324 159.43277,42.7864865 164.309797,42.7864865 C170.056419,42.7864865 174.895946,38.1263514 174.895946,32.6097973 C174.895946,28.0550676 170.34527,25.9266892 166.692568,24.2128378 L166.158446,23.9635135 L158.34527,19.8516892 C155.344257,17.8976351 153.828041,15.2310811 153.828041,11.9037162 C153.828041,5.35135135 158.42027,0.771283784 164.988851,0.771283784 C169.333784,0.771283784 173.524662,3.18040541 175.662162,6.9152027 L175.703716,6.9902027 L173.625,8.73648649 L173.547973,8.63310811 C171.39223,5.31385135 168.468243,3.63243243 164.847973,3.63243243 C162.607095,3.63243243 160.548649,4.49189189 159.045608,6.03952703 C157.560811,7.57398649 156.733784,9.62027027 156.741892,11.8135135 C156.733784,16.1047297 160.870946,18.0334459 164.200338,19.5871622 L164.507432,19.7320946 L172.77973,24.1388514 C176.216554,26.2864865 177.811824,29.0462838 177.811824,32.8327703 C177.811824,36.3304054 176.316892,39.5929054 173.616892,42.0253378 C171.044595,44.3371622 167.572297,45.6577703 164.1,45.6577703 L164.1,45.6577703 Z M151.530405,36.2665541 C153.61723,42.0192568 158.30473,45.4439189 164.1,45.4439189 C167.522635,45.4439189 170.933108,44.139527 173.464865,41.8611486 C176.121284,39.4814189 177.589865,36.2746622 177.589865,32.8347973 C177.589865,29.1375 176.019932,26.4314189 172.663176,24.3263514 L164.405068,19.9216216 L164.1,19.7827703 C160.718919,18.2027027 156.518919,16.2476351 156.518919,11.8155405 C156.518919,9.56858108 157.358108,7.46452703 158.886486,5.89256757 C160.436149,4.30135135 162.550338,3.41858108 164.83277,3.41858108 C168.50473,3.41858108 171.472297,5.10101351 173.667568,8.41317568 L175.420946,6.94662162 C173.30473,3.32027027 169.227365,0.988175676 164.988851,0.988175676 C158.541892,0.988175676 154.041892,5.47804054 154.041892,11.9047297 C154.041892,15.1570946 155.530743,17.7658784 158.45473,19.6641892 L166.253716,23.7638514 L166.783784,24.0152027 C170.499324,25.7574324 175.117905,27.9192568 175.117905,32.6097973 C175.117905,38.2459459 170.177027,43.0043919 164.333108,43.0043919 C159.362838,43.0043919 155.712162,40.3256757 153.722635,35.2560811 L151.530405,36.2665541 L151.530405,36.2665541 Z" id="Shape"></path>
                            <path d="M11.7283784,24.8148649 C19.1847973,24.822973 23.9219595,20.3452703 23.9219595,13.3631757 C23.9219595,10.5050676 23.1385135,6.52195946 19.497973,3.95067568 C16.4037162,1.7472973 12.7915541,1.7472973 9.57871622,1.7472973 L8.36554054,1.7472973 L7.70878378,1.7472973 L3.86047297,1.7472973 L0.552364865,1.7472973 L0.552364865,45.3283784 L3.2777027,45.3283784 L3.2777027,4.62567568 L3.68918919,4.62567568 L7.85371622,4.62567568 L9.81790541,4.62567568 L11.9837838,4.62567568 C13.7057432,4.62567568 15.339527,4.9125 16.7351351,5.57939189 C19.4989865,6.82601351 21.222973,9.77027027 21.222973,13.2141892 C21.222973,15.9952703 20.0908784,18.5138514 18.2077703,20.0554054 C16.1432432,21.8888514 13.6368243,22.1097973 10.7189189,22.1097973 L6.82905405,22.1097973 L7.75337838,23.4202703 L8.91182432,25.1898649 L22.6256757,45.3273649 L25.7594595,45.3273649 L11.7283784,24.8148649 L11.7283784,24.8148649 Z" id="Shape"></path>
                            <path d="M22.5648649,45.4439189 L22.5334459,45.3881757 L8.82162162,25.2527027 L7.65810811,23.4709459 L6.61925676,22.0064189 L10.7209459,22.0003378 C13.4209459,22.0003378 16.0206081,21.8523649 18.1378378,19.9733108 C19.9986486,18.4489865 21.1094595,15.9192568 21.1094595,13.2152027 C21.1094595,9.79864865 19.4128378,6.91013514 16.6915541,5.68277027 C15.372973,5.05540541 13.7898649,4.72905405 11.9858108,4.72905405 L10.5111486,4.73513514 C10.2679054,4.73513514 10.0277027,4.72905405 9.81993243,4.72905405 L3.39628378,4.72905405 L3.39628378,45.4337838 L0.444932432,45.4337838 L0.444932432,1.64695946 L9.58074324,1.64695946 C12.8016892,1.64695946 16.4402027,1.64695946 19.5658784,3.86452703 C23.2540541,6.46925676 24.035473,10.4756757 24.035473,13.3641892 C24.035473,20.3239865 19.2983108,24.8452703 11.9402027,24.9283784 L25.9712838,45.4337838 L22.5648649,45.4439189 L22.5648649,45.4439189 Z M7.03682432,22.2243243 L7.83851351,23.3543919 L9,25.1341216 L22.6804054,45.2179054 L25.5547297,45.2179054 L11.5175676,24.7125 L11.7273649,24.7125 C19.0733108,24.7125 23.810473,20.2570946 23.810473,13.3641892 C23.810473,10.5172297 23.0523649,6.59594595 19.4341216,4.03885135 C16.3662162,1.86182432 12.7591216,1.86182432 9.5777027,1.86182432 L0.663851351,1.86182432 L0.663851351,45.2189189 L3.16418919,45.2189189 L3.16418919,4.5152027 L9.81689189,4.5152027 C10.0246622,4.52331081 10.2638514,4.52331081 10.5081081,4.52331081 L11.9827703,4.5152027 C13.8233108,4.5152027 15.4327703,4.83952703 16.7756757,5.48513514 C19.5841216,6.74594595 21.3304054,9.71959459 21.3304054,13.2152027 C21.3304054,15.9881757 20.1922297,18.5675676 18.2777027,20.1375 C16.1037162,22.0581081 13.4614865,22.2162162 10.7179054,22.2162162 L7.03682432,22.2243243 L7.03682432,22.2243243 Z" id="Shape"></path>
                            <path d="M56.5236486,3.67601351 C67.6489865,3.66790541 76.1168919,12.6962838 76.1168919,23.5783784 C76.1168919,32.9746622 67.8364865,43.0489865 56.5236486,43.0489865 C45.5432432,43.0429054 36.710473,34.1554054 36.710473,23.2084459 C36.710473,12.6375 45.7246622,3.66790541 56.5236486,3.67601351 M114.512838,68.1689189 C85.6631757,68.1689189 59.664527,58.760473 46.197973,43.6246622 C45.9527027,43.2648649 45.7033784,43.0489865 45.5108108,42.75 C48.7631757,44.5094595 52.4351351,45.6060811 56.5226351,45.6060811 C69.1875,45.6060811 78.9263514,34.9540541 78.9344595,23.1324324 C78.9263514,10.8577703 68.6016892,1.01756757 56.5165541,1.02567568 C44.1466216,1.01756757 34.0175676,10.8577703 34.0175676,23.2084459 C34.0175676,25.6368243 34.3439189,27.9790541 35.0726351,30.1804054 C35.0726351,30.3304054 35.1141892,30.4043919 35.2307432,30.6273649 C35.6341216,31.5891892 36.0385135,32.6108108 36.4418919,33.4915541 C37.5425676,35.7638514 38.8763514,37.9712838 40.3793919,40.1706081 L40.3418919,40.1706081 C40.3793919,40.2516892 40.4939189,40.2516892 40.4939189,40.3266892 C40.5293919,40.4746622 40.6722973,40.5445946 40.7807432,40.6925676 C41.7709459,42.2331081 43.0408784,43.6317568 44.1456081,45.0202703 C44.3969595,45.3293919 44.5398649,45.5543919 44.7152027,45.6141892 C45.0831081,46.2060811 45.5087838,46.5679054 45.8260135,47.0138514 C46.8253378,47.964527 47.9087838,49.0743243 48.935473,50.0898649 L48.935473,50.0320946 C63.6334459,62.8155405 87.9699324,70.8212838 114.510811,70.8212838 C140.563176,70.8212838 165.087162,62.964527 180.011149,49.8658784 L180.011149,46.4949324 C166.016554,59.8570946 141.078041,68.1689189 114.512838,68.1689189" id="Shape"></path>
                            <path d="M114.537162,70.9317568 L114.475338,70.9317568 C88.4807432,70.9317568 64.0469595,63.2097973 49.0418919,50.2672297 L49.0418919,50.3564189 L48.8574324,50.1699324 C48.5351351,49.8516892 48.2118243,49.5243243 47.8793919,49.1918919 C47.175,48.4814189 46.4361486,47.7364865 45.7469595,47.0959459 C45.6060811,46.8942568 45.4540541,46.7239865 45.2959459,46.539527 C45.0760135,46.2942568 44.8560811,46.0347973 44.6442568,45.7023649 C44.4841216,45.635473 44.3706081,45.4763514 44.2084459,45.2766892 C44.1668919,45.2168919 44.1172297,45.152027 44.0564189,45.0861486 C43.7493243,44.7 43.4331081,44.3138514 43.1097973,43.914527 C42.2726351,42.9050676 41.4030405,41.8601351 40.6945946,40.7513514 C40.6510135,40.6956081 40.6135135,40.6621622 40.5739865,40.6246622 C40.4929054,40.5476351 40.4199324,40.4746622 40.3935811,40.3570946 C40.3935811,40.3570946 40.3935811,40.3570946 40.3935811,40.3489865 C40.3773649,40.3489865 40.3722973,40.3408784 40.3722973,40.3408784 C40.3327703,40.3175676 40.277027,40.2790541 40.2516892,40.2222973 L40.1584459,40.0682432 L40.1746622,40.0682432 C38.5875,37.725 37.3378378,35.5925676 36.3486486,33.5300676 C36.0375,32.8692568 35.7233108,32.1162162 35.4243243,31.3885135 C35.327027,31.1432432 35.2307432,30.9050676 35.1293919,30.6719595 L35.1131757,30.6425676 C35.0118243,30.4489865 34.9631757,30.3577703 34.9631757,30.1956081 C34.2628378,28.0692568 33.9,25.7199324 33.9,23.2074324 C33.9,10.9185811 44.0351351,0.912162162 56.5003378,0.912162162 C62.4344595,0.912162162 68.0493243,3.21587838 72.3324324,7.39662162 C76.6581081,11.6209459 79.0307432,17.2114865 79.0408784,23.1314189 C79.0307432,28.8902027 76.6712838,34.6347973 72.5483108,38.8824324 C68.2682432,43.2912162 62.5793919,45.7155405 56.5226351,45.7155405 C52.8689189,45.7155405 49.2932432,44.8347973 45.9060811,43.0844595 C46.0327703,43.2324324 46.1635135,43.3814189 46.2922297,43.5658784 C59.7273649,58.6692568 85.872973,68.0625 114.512838,68.0625 C140.880405,68.0625 165.95473,59.7658784 179.934122,46.4199324 L180.131757,46.2314189 L180.131757,49.9195946 L180.084122,49.9469595 C165.109459,63.0891892 140.599662,70.9317568 114.537162,70.9317568 L114.537162,70.9317568 Z M48.827027,49.7868243 L49.0094595,49.9489865 C63.9527027,62.9462838 88.4300676,70.7057432 114.476351,70.7057432 L114.538176,70.7057432 C140.52973,70.7057432 164.9625,62.9027027 179.905743,49.8222973 L179.905743,46.7543919 C165.849324,60.0364865 140.825676,68.285473 114.513851,68.285473 C85.8152027,68.285473 59.6037162,58.8567568 46.1118243,43.6996622 C45.9831081,43.5081081 45.8584459,43.3692568 45.7418919,43.2344595 C45.6253378,43.0935811 45.5118243,42.9577703 45.4114865,42.8108108 L45.189527,42.4540541 L45.5635135,42.6537162 C49.0530405,44.5439189 52.7412162,45.5027027 56.5236486,45.5027027 C62.5175676,45.5027027 68.1537162,43.1016892 72.3912162,38.7263514 C76.4726351,34.5243243 78.8189189,28.8385135 78.8189189,23.1314189 C78.8189189,17.2722973 76.4574324,11.7314189 72.185473,7.55067568 C67.9469595,3.40945946 62.3787162,1.12702703 56.5236486,1.12702703 C44.1618243,1.12702703 34.1290541,11.0361486 34.1290541,23.2064189 C34.1290541,25.6966216 34.4837838,28.0327703 35.1800676,30.1489865 L35.1800676,30.1783784 C35.1800676,30.2888514 35.2175676,30.3567568 35.3108108,30.5442568 L35.3361486,30.5736486 C35.4334459,30.8189189 35.5317568,31.0601351 35.627027,31.3064189 C35.9300676,32.0331081 36.2442568,32.7810811 36.5432432,33.4398649 C37.5547297,35.5358108 38.8418919,37.7158784 40.4807432,40.1108108 L40.5162162,40.1756757 C40.5597973,40.1969595 40.5993243,40.2486486 40.5993243,40.3236486 C40.6155405,40.3611486 40.6570946,40.3966216 40.7260135,40.4665541 C40.7756757,40.5121622 40.8233108,40.5638514 40.8760135,40.6226351 C41.5925676,41.7334459 42.4439189,42.7702703 43.2831081,43.7797297 C43.5993243,44.1719595 43.9246622,44.5631757 44.2337838,44.9513514 C44.2875,45.0162162 44.3422297,45.0841216 44.3837838,45.1418919 C44.5398649,45.3334459 44.6452703,45.4702703 44.7537162,45.5138514 L44.7912162,45.5219595 L44.8125,45.5513514 C45.0182432,45.8918919 45.2422297,46.1513514 45.4672297,46.4027027 C45.6273649,46.5891892 45.7763514,46.7594595 45.9121622,46.9591216 C46.5912162,47.5885135 47.3310811,48.3314189 48.0364865,49.0398649 C48.3040541,49.3094595 48.5635135,49.5679054 48.8239865,49.8273649 L48.8239865,49.7868243 L48.827027,49.7868243 Z M56.5236486,43.1614865 C45.5331081,43.1533784 36.602027,34.2040541 36.602027,23.2074324 C36.602027,12.5614865 45.7256757,3.56452703 56.5175676,3.56452703 L56.5236486,3.56452703 C61.8942568,3.56452703 66.8766892,5.6625 70.5760135,9.47331081 C74.2206081,13.2283784 76.2273649,18.2402027 76.2273649,23.5773649 C76.2273649,28.2922297 74.1902027,33.152027 70.6449324,36.9091216 C66.8503378,40.9418919 61.8304054,43.1614865 56.5236486,43.1614865 L56.5236486,43.1614865 Z M56.5175676,3.78040541 C45.8361486,3.78040541 36.8189189,12.6800676 36.8189189,23.2074324 C36.8189189,34.0864865 45.6638514,42.9375 56.5226351,42.9375 C65.735473,42.9375 76.0094595,34.9834459 76.0094595,23.5773649 C76.0094595,18.297973 74.0219595,13.3388514 70.4118243,9.62128378 C66.7631757,5.85608108 61.8304054,3.77939189 56.5317568,3.77939189 L56.5175676,3.77939189 L56.5175676,3.78040541 Z" id="Shape"></path>
                            <path d="M188.151689,5.78817568 L188.697973,5.78817568 C189.422635,5.78817568 189.968919,5.64121622 189.968919,4.99054054 C189.968919,4.62668919 189.661824,4.10574324 188.697973,4.10574324 C188.533784,4.09763514 188.326014,4.09763514 188.151689,4.10574324 L188.151689,5.78817568 L188.151689,5.78817568 Z M188.151689,8.66655405 L187.339865,8.66655405 L187.339865,3.66790541 C187.753378,3.52905405 188.151689,3.52094595 188.745608,3.52094595 C189.567568,3.52905405 190.037838,3.66790541 190.340878,3.88885135 C190.654054,4.10472973 190.853716,4.40371622 190.853716,4.9125 C190.845608,5.57939189 190.340878,5.95135135 189.788514,6.15912162 C190.216216,6.3152027 190.590203,6.68614865 190.654054,7.4777027 C190.853716,8.2125 190.917568,8.52263514 191.075676,8.66554054 L190.109797,8.66554054 C190.038851,8.52263514 189.848311,8.00472973 189.781419,7.33682432 C189.702365,6.68513514 189.345608,6.52094595 188.698986,6.52094595 L188.158784,6.52094595 L188.151689,8.66655405 L188.151689,8.66655405 Z M189.043581,2.26013514 C187.054054,2.26013514 185.313851,3.88885135 185.313851,5.95236486 C185.313851,8.2125 187.045946,9.84222973 189.043581,9.84222973 C191.080743,9.90202703 192.547297,8.22060811 192.547297,6.01013514 C192.547297,3.88986486 191.074662,2.26013514 189.043581,2.26013514 L189.043581,2.26013514 Z M189.043581,1.52635135 C191.464865,1.53243243 193.471622,3.53006757 193.471622,5.95236486 C193.471622,8.57736486 191.464865,10.5760135 189.051689,10.5760135 C186.496622,10.5760135 184.467568,8.57635135 184.467568,5.95236486 C184.467568,3.52195946 186.496622,1.52635135 189.043581,1.52635135 L189.043581,1.52635135 Z" id="Shape"></path>
                            <path d="M189.051689,10.6814189 C186.416554,10.6814189 184.354054,8.60472973 184.354054,5.95236486 C184.354054,3.45405405 186.460135,1.42094595 189.043581,1.42094595 C191.543919,1.42094595 193.581081,3.45405405 193.581081,5.95236486 C193.581081,8.60472973 191.593581,10.6814189 189.051689,10.6814189 L189.051689,10.6814189 Z M189.043581,1.63682432 C186.580743,1.63682432 184.576014,3.57263514 184.576014,5.95236486 C184.576014,8.48006757 186.540203,10.4655405 189.051689,10.4655405 C191.464865,10.4655405 193.355068,8.48006757 193.355068,5.95236486 C193.355068,3.57263514 191.423311,1.63682432 189.043581,1.63682432 L189.043581,1.63682432 Z M189.155068,9.9527027 L189.155068,9.9527027 C189.115541,9.9527027 189.082095,9.9527027 189.044595,9.94864865 C186.896959,9.94864865 185.208446,8.19121622 185.208446,5.95236486 C185.208446,3.88986486 186.967905,2.1597973 189.044595,2.1597973 L189.044595,2.1597973 C191.105068,2.1597973 192.662838,3.81081081 192.662838,6.01013514 C192.662838,7.09459459 192.310135,8.08682432 191.678716,8.81554054 C191.033108,9.5472973 190.135135,9.9527027 189.155068,9.9527027 L189.155068,9.9527027 Z M189.043581,2.37162162 C187.081419,2.37162162 185.421284,4.00844595 185.421284,5.95236486 C185.421284,8.07466216 187.016554,9.73277027 189.043581,9.73277027 L189.154054,9.73277027 L189.154054,9.73277027 C190.07027,9.73277027 190.907432,9.35472973 191.505405,8.67364865 C192.105405,7.98445946 192.437838,7.04290541 192.437838,6.00912162 C192.438851,3.93547297 190.980405,2.37162162 189.043581,2.37162162 L189.043581,2.37162162 L189.043581,2.37162162 Z M191.371622,8.76891892 L190.039865,8.76891892 L190.008446,8.71621622 C189.927365,8.56925676 189.746959,8.05135135 189.678041,7.34594595 C189.609122,6.8097973 189.362838,6.63344595 188.697973,6.63344595 L188.264189,6.63344595 L188.258108,8.76891892 L187.228378,8.76891892 L187.234459,3.59594595 L187.305405,3.56452703 C187.733108,3.41756757 188.128378,3.41047297 188.744595,3.41047297 C189.516892,3.41858108 190.038851,3.54324324 190.403716,3.81081081 C190.777703,4.05405405 190.956081,4.40472973 190.956081,4.91351351 C190.954054,5.46385135 190.646959,5.87939189 190.047973,6.16824324 C190.475676,6.40540541 190.714865,6.84932432 190.772635,7.47263514 L190.830405,7.69459459 C190.957095,8.22162162 191.034122,8.48006757 191.146622,8.57736486 L191.371622,8.76891892 L191.371622,8.76891892 Z M190.180743,8.55506757 L190.859797,8.55506757 C190.778716,8.38885135 190.714865,8.13952703 190.6125,7.75337838 L190.55473,7.50810811 C190.498986,6.84932432 190.222297,6.43277027 189.746959,6.2625 L189.472297,6.15912162 L189.746959,6.05574324 C190.403716,5.80844595 190.733108,5.42432432 190.733108,4.91148649 C190.733108,4.47567568 190.598311,4.18682432 190.282095,3.98513514 C189.947635,3.74391892 189.466216,3.63243243 188.745608,3.62533784 C188.185135,3.62533784 187.821284,3.63952703 187.451351,3.74391892 L187.451351,8.55405405 L188.041216,8.55405405 L188.049324,6.41047297 L188.698986,6.41047297 C189.268581,6.41858108 189.805743,6.52905405 189.890878,7.32060811 C189.952703,7.90844595 190.100676,8.36959459 190.180743,8.55506757 L190.180743,8.55506757 Z M188.697973,5.89864865 L188.041216,5.89864865 L188.041216,3.99222973 L188.151689,3.99222973 C188.326014,3.98614865 188.533784,3.98614865 188.708108,3.99222973 C189.788514,3.99222973 190.080405,4.61756757 190.080405,4.98952703 C190.079392,5.78817568 189.344595,5.89256757 188.697973,5.89864865 L188.697973,5.89864865 Z M188.258108,5.6777027 L188.697973,5.6777027 C189.525,5.6777027 189.856419,5.47804054 189.856419,4.99054054 C189.856419,4.70168919 189.61723,4.20912162 188.697973,4.20912162 L188.258108,4.20912162 L188.258108,5.6777027 L188.258108,5.6777027 Z" id="Shape"></path>
                        </g>
                    </g>
                </g>
            </g>
        </g>
    </g>
</svg>